<svg xmlns="http://www.w3.org/2000/svg" width="110.2" height="110.2" viewBox="0 0 1102 1102">
  <defs>
    <style>
      .cls-1 {
        fill: #00aeef;
      }

      .cls-1, .cls-2 {
        fill-rule: evenodd;
      }

      .cls-2 {
        fill: none;
        stroke: #00aeef;
        stroke-width: 30px;
      }
    </style>
  </defs>
  <path class="cls-1" d="M617.342,232.945S364.719,173.393,259.131,431.43c-0.218.5,97.023,0,96.577,0,44.735,4.767,45.486,59.127,0,64.991-0.792.483-225.763-.924-244.075,1.756-26.352,8.934-25.412,39.475,0,47.426,37.9-.695,124.092-0.156,147.5,0,41.147,3.353,43.786,60.214,1.869,68.4-53.8-.262-64.33-0.041-74,0-27.439,4.437-26.571,46.625,3,49,66.3,0,78.6-.468,80,0,9.469,25.43,56.652,113.478,158,157,1.837-3.649,94.521-262.1,94.521-262.1L376.779,573.707Z"/>
  <path id="Shape_1_copy" data-name="Shape 1 copy" class="cls-1" d="M483.658,838.055S736.281,897.607,841.869,639.57c0.218-.5-97.023,0-96.577,0-44.735-4.767-45.486-59.127,0-64.991,0.792-.483,225.763.924,244.075-1.756,26.353-8.934,25.413-39.475,0-47.426-37.9.695-124.092,0.156-147.5,0-41.147-3.353-43.786-60.214-1.869-68.4,53.8,0.262,64.33.041,74,0,27.439-4.437,26.571-46.625-3-49-66.295,0-78.6.468-80,0-9.469-25.43-56.652-113.478-158-157-1.837,3.649-94.521,262.1-94.521,262.1l145.742-15.809Z"/>
  <path class="cls-2" d="M996,551s2.806,34.137,36,38c24.61,0.74,45.17-19.45,40-46-3.14-29.693-60.83-51.536-76,5"/>
  <path id="Shape_2_copy" data-name="Shape 2 copy" class="cls-2" d="M919,431s2.806,34.137,36,38c24.615,0.74,45.17-19.45,40-46-3.145-29.693-60.827-51.536-76,5"/>
  <path id="Shape_2_copy_2" data-name="Shape 2 copy 2" class="cls-2" d="M105,522s-2.806-34.137-36-38c-24.615-.74-45.165,19.45-40,46,3.145,29.693,60.827,51.536,76-5"/>
  <path id="Shape_2_copy_3" data-name="Shape 2 copy 3" class="cls-2" d="M182,642s-2.806-34.137-36-38c-24.615-.74-45.165,19.45-40,46,3.145,29.693,60.827,51.536,76-5"/>
</svg>
